<svg width="46" height="46" viewBox="0 0 46 46" fill="none" xmlns="http://www.w3.org/2000/svg">
<g id="Facebook - Negative" clip-path="url(#clip0_37_357)">
<path id="Vector" d="M45.4417 22.7209C45.4417 10.1725 35.2693 0 22.7209 0C10.1725 0 0 10.1725 0 22.7209C0 34.0613 8.30865 43.4612 19.1707 45.1657V29.2886H13.4018V22.7209H19.1707V17.7152C19.1707 12.0208 22.5629 8.87534 27.7527 8.87534C30.2378 8.87534 32.8388 9.31911 32.8388 9.31911V14.9106H29.9738C27.1514 14.9106 26.271 16.6621 26.271 18.4607V22.7209H32.5725L31.5651 29.2886H26.271V45.1657C37.1331 43.4612 45.4417 34.0613 45.4417 22.7209Z" fill="#2A5077"/>
</g>
<defs>
<clipPath id="clip0_37_357">
<rect width="45.4417" height="45.4417" fill="white"/>
</clipPath>
</defs>
</svg>
