<svg width="44" height="46" viewBox="0 0 44 46" fill="none" xmlns="http://www.w3.org/2000/svg">
<g id="Group 3">
<g id="Group">
<path id="Vector" d="M22.0001 0C16.0252 0 15.276 0.0264994 12.9294 0.138386C10.5878 0.250067 8.98853 0.638931 7.58912 1.2074C6.14243 1.79518 4.91554 2.58167 3.69252 3.86029C2.46943 5.1389 1.71713 6.4217 1.15497 7.93415C0.611086 9.39709 0.23926 11.069 0.132304 13.5171C0.0252818 15.9703 0 16.7536 0 23.0001C0 29.2464 0.0252818 30.0297 0.132304 32.4829C0.23926 34.931 0.611086 36.6029 1.15497 38.0658C1.7172 39.5783 2.46949 40.861 3.69252 42.1397C4.9156 43.4183 6.14243 44.2048 7.58912 44.7926C8.98853 45.3611 10.5878 45.7499 12.9294 45.8616C15.276 45.9735 16.0252 46 22.0001 46C27.9748 46 28.724 45.9735 31.0706 45.8616C33.4122 45.7499 35.0115 45.3611 36.4108 44.7926C37.8575 44.2048 39.0844 43.4183 40.3075 42.1397C41.5306 40.861 42.2829 39.5783 42.8451 38.0658C43.3889 36.6029 43.7608 34.931 43.8676 32.4829C43.9747 30.0297 44 29.2464 44 23.0001C44 16.7536 43.9747 15.9703 43.8676 13.5171C43.7608 11.069 43.3889 9.39709 42.8451 7.93415C42.2829 6.4217 41.5306 5.1389 40.3075 3.86029C39.0844 2.58167 37.8575 1.79518 36.4108 1.2074C35.0115 0.638931 33.4122 0.250067 31.0706 0.138386C28.724 0.0264994 27.9748 0 22.0001 0ZM22.0001 4.14411C27.8742 4.14411 28.5701 4.1676 30.8899 4.27825C33.0349 4.38049 34.1998 4.75518 34.9749 5.07016C36.0019 5.48744 36.7348 5.98579 37.5045 6.79063C38.2745 7.59548 38.7511 8.3617 39.1503 9.43524C39.4516 10.2457 39.81 11.4636 39.9078 13.706C40.0136 16.1313 40.0361 16.8588 40.0361 23C40.0361 29.1412 40.0136 29.8687 39.9078 32.294C39.81 34.5365 39.4516 35.7543 39.1503 36.5647C38.7511 37.6384 38.2745 38.4045 37.5045 39.2093C36.7348 40.0142 36.0019 40.5126 34.975 40.9298C34.1998 41.2448 33.0348 41.6195 30.8899 41.7217C28.5704 41.8324 27.8747 41.8559 22 41.8559C16.1253 41.8559 15.4297 41.8324 13.1101 41.7217C10.9651 41.6195 9.80023 41.2448 9.02507 40.9298C7.99808 40.5126 7.26524 40.0142 6.49545 39.2093C5.7256 38.4045 5.24885 37.6383 4.84971 36.5648C4.54843 35.7543 4.1901 34.5364 4.09224 32.294C3.9864 29.8687 3.96393 29.1412 3.96393 23C3.96393 16.8588 3.9864 16.1313 4.09224 13.706C4.1901 11.4635 4.54843 10.2457 4.84971 9.4353C5.24885 8.36163 5.7256 7.59548 6.49539 6.7907C7.26524 5.98579 7.99815 5.48744 9.02501 5.07016C9.80023 4.75518 10.9652 4.38049 13.1101 4.27825C15.4299 4.1676 16.1258 4.14411 22 4.14411" fill="#2A5077"/>
<path id="Vector_2" d="M22 30.6667C17.9498 30.6667 14.6666 27.2342 14.6666 23.0001C14.6666 18.7658 17.9498 15.3333 22 15.3333C26.0501 15.3333 29.3333 18.7658 29.3333 23.0001C29.3333 27.2342 26.0501 30.6667 22 30.6667ZM22 11.1892C15.7606 11.1892 10.7026 16.477 10.7026 23.0001C10.7026 29.523 15.7606 34.8108 22 34.8108C28.2393 34.8108 33.2972 29.523 33.2972 23.0001C33.2972 16.477 28.2393 11.1892 22 11.1892ZM36.3836 10.7225C36.3836 12.2469 35.2016 13.4825 33.7436 13.4825C32.2856 13.4825 31.1036 12.2469 31.1036 10.7225C31.1036 9.19824 32.2856 7.96249 33.7436 7.96249C35.2016 7.96249 36.3836 9.19824 36.3836 10.7225Z" fill="#2A5077"/>
</g>
</g>
</svg>
