<svg width="46" height="46" viewBox="0 0 46 46" fill="none" xmlns="http://www.w3.org/2000/svg">
<g id="Twitter - Negative" clip-path="url(#clip0_23_5833)">
<path id="Vector" d="M14.2647 41.9228C31.4083 41.9228 40.7878 27.716 40.7878 15.3997C40.7878 15.0003 40.7789 14.5921 40.7612 14.1927C42.5858 12.8731 44.1604 11.2387 45.411 9.36625C43.7117 10.1223 41.9075 10.6161 40.06 10.8307C42.0053 9.66467 43.4618 7.83292 44.1595 5.675C42.3296 6.75952 40.3283 7.52456 38.2415 7.93732C36.8354 6.44333 34.9764 5.45413 32.9518 5.12266C30.9271 4.79119 28.8497 5.13591 27.0407 6.10353C25.2316 7.07115 23.7917 8.60777 22.9435 10.4758C22.0954 12.3439 21.8862 14.4393 22.3484 16.4381C18.6429 16.2522 15.0179 15.2896 11.7083 13.6128C8.39873 11.936 5.47847 9.58236 3.13685 6.70454C1.94671 8.75647 1.58253 11.1846 2.11831 13.4954C2.6541 15.8062 4.04965 17.8263 6.02133 19.1451C4.54111 19.0981 3.09331 18.6996 1.79756 17.9824V18.0978C1.79623 20.2512 2.54067 22.3385 3.90432 24.0051C5.26797 25.6716 7.16669 26.8145 9.27769 27.2394C7.9065 27.6146 6.46737 27.6692 5.07167 27.3992C5.66736 29.2511 6.82634 30.8708 8.38689 32.0323C9.94743 33.1938 11.8317 33.8391 13.7766 33.8782C10.4747 36.4719 6.39579 37.8787 2.19695 37.8721C1.45232 37.8709 0.708422 37.8253 -0.0307617 37.7354C4.23481 40.472 9.19681 41.9254 14.2647 41.9228Z" fill="#2A5077"/>
</g>
<defs>
<clipPath id="clip0_23_5833">
<rect width="45.4417" height="45.4417" fill="white"/>
</clipPath>
</defs>
</svg>
